HIERARCHY
ROOT Hips
{
  OFFSET 3.13124 94.3669 -3.18751
  CHANNELS  6 Xposition Yposition Zposition Zrotation Xrotation Yrotation
  JOINT LeftUpLeg
  {
    OFFSET 8.64259 1.95398 -2.38835
    CHANNELS 3 Zrotation Xrotation Yrotation
    JOINT LeftLeg
    {
      OFFSET 43.7702 0 0
      CHANNELS 3 Zrotation Xrotation Yrotation
      JOINT LeftFoot
      {
        OFFSET 40.6238 0 0
        CHANNELS 3 Zrotation Xrotation Yrotation
        JOINT LeftToeBase
        {
          OFFSET 12.7242 0 0
          CHANNELS 3 Zrotation Xrotation Yrotation
          End Site
          {
            OFFSET 0 0 0
          }
        }
      }
    }
  }
  JOINT RightUpLeg
  {
    OFFSET -8.2249 1.95398 -2.59336
    CHANNELS 3 Zrotation Xrotation Yrotation
    JOINT RightLeg
    {
      OFFSET 43.5653 0 0
      CHANNELS 3 Zrotation Xrotation Yrotation
      JOINT RightFoot
      {
        OFFSET 40.6238 0 0
        CHANNELS 3 Zrotation Xrotation Yrotation
        JOINT RightToeBase
        {
          OFFSET 12.7242 0 0
          CHANNELS 3 Zrotation Xrotation Yrotation
          End Site
          {
            OFFSET 0 0 0
          }
        }
      }
    }
  }
  JOINT Spine
  {
    OFFSET 0.165834 0.87714 6.61349
    CHANNELS 3 Zrotation Xrotation Yrotation
    JOINT Spine1
    {
      OFFSET 7.38962 1.71661e-005 0
      CHANNELS 3 Zrotation Xrotation Yrotation
      JOINT Spine2
      {
        OFFSET 11.9445 1.14441e-005 0
        CHANNELS 3 Zrotation Xrotation Yrotation
        JOINT Spine3
        {
          OFFSET 14.7254 4.19617e-005 0
          CHANNELS 3 Zrotation Xrotation Yrotation
          JOINT Spine4
          {
            OFFSET 10.9679 0 0
            CHANNELS 3 Zrotation Xrotation Yrotation
            JOINT RightShoulder
            {
              OFFSET 2.46616 -1.6653 3.69651
              CHANNELS 3 Zrotation Xrotation Yrotation
              JOINT RightArm
              {
                OFFSET 13.0012 0 0
                CHANNELS 3 Zrotation Xrotation Yrotation
                JOINT RightForeArm
                {
                  OFFSET 28.7848 1.52588e-005 0
                  CHANNELS 3 Zrotation Xrotation Yrotation
                  JOINT RightHand
                  {
                    OFFSET 26.5688 1.52588e-005 0
                    CHANNELS 3 Zrotation Xrotation Yrotation
                    End Site
                    {
                      OFFSET 0 0 0
                    }
                  }
                }
              }
            }
            JOINT LeftShoulder
            {
              OFFSET 2.38034 -1.29275 -3.75231
              CHANNELS 3 Zrotation Xrotation Yrotation
              JOINT LeftArm
              {
                OFFSET 16.3182 6.10352e-005 0
                CHANNELS 3 Zrotation Xrotation Yrotation
                JOINT LeftForeArm
                {
                  OFFSET 27.0901 0 0
                  CHANNELS 3 Zrotation Xrotation Yrotation
                  JOINT LeftHand
                  {
                    OFFSET 24.5451 1.52588e-005 0
                    CHANNELS 3 Zrotation Xrotation Yrotation
                    End Site
                    {
                      OFFSET 0 0 0
                    }
                  }
                }
              }
            }
            JOINT Neck
            {
              OFFSET 5.0226 -0.0266342 0
              CHANNELS 3 Zrotation Xrotation Yrotation
              JOINT Head
              {
                OFFSET 6.69363 2.86102e-005 0
                CHANNELS 3 Zrotation Xrotation Yrotation
                End Site
                {
                  OFFSET 0 0 0
                }
              }
            }
          }
        }
      }
    }
  }
}
MOTION
Frames:	18
Frame Time:	0.0333333
42.0794 91.0277 -42.8909 -83.6565 -59.5389 -93.7926 -176.617 15.5747 99.8623 -5.81064 -37.6893 -2.88181 56.7036 8.08385 5.03704 28.7808 6.7949e-006 7.09447e-006 178.978 19.4421 72.3977 -44.3305 10.2926 0.38207 72.413 2.77182 1.17511 28.7808 1.16263e-005 1.97383e-005 2.6485 7.49278 -94.5216 11.8138 2.81363 -6.46374 0.129358 2.52603 -6.58295 -22.3347 4.63043 -5.34301 -2.32201 4.63046 -5.34304 81.9046 -42.7952 -115.932 43.9637 -8.37489 -54.2601 -2.56833 16.3308 -5.1013 -44.5044 11.1815 -32.4659 -82.2057 -10.0299 84.6595 -34.3379 21.3479 -44.2193 81.7322 31.0667 -87.1657 -5.7868 0.537031 -25.1297 43.6891 30.2848 28.096 -31.5877 13.8641 -0.308926 
44.9073 90.3997 -38.8494 -85.5981 -65.3185 -96.8654 -177.665 14.0646 97.3101 -5.99649 -39.4701 -3.08571 45.3426 9.7177 7.14017 28.7808 6.7949e-006 7.09447e-006 178.581 15.8064 68.1339 -44.9259 13.7519 0.576971 72.4975 6.46971 2.93068 28.7808 1.16263e-005 1.97383e-005 2.16287 7.35767 -94.2822 12.0938 2.10583 -6.46409 0.407884 1.81813 -6.55066 -22.0389 3.96046 -5.54413 -2.02626 3.96046 -5.54417 80.884 -46.3926 -116.025 43.0418 -7.36307 -54.2262 -2.20781 23.6884 -5.2635 -42.7459 12.2815 -36.3828 -82.1898 -6.97279 83.6915 -32.0216 22.1028 -47.9616 86.7589 27.9322 -90.0827 -13.8372 2.14943 -26.3797 47.4392 29.4633 25.2408 -35.8246 13.3818 -0.133879 
48.0564 89.4727 -34.7845 -88.4435 -69.7899 -100.928 -179.37 11.4406 93.2355 -5.85514 -38.2032 -2.92291 40.6297 2.8088 1.66857 28.7808 6.7949e-006 7.09447e-006 179.87 14.8652 64.0101 -50.7723 18.9429 0.787702 67.1298 12.0901 6.31967 28.7808 1.16263e-005 1.97383e-005 1.99358 7.19961 -93.9474 12.4357 1.99526 -6.71553 0.74854 1.69899 -6.79695 -21.6891 3.91455 -5.80247 -1.67647 3.91453 -5.80248 81.0965 -46.1406 -115.801 42.5372 -7.48099 -55.6194 -1.60379 34.1576 -5.61493 -44.0693 12.2887 -35.3996 -82.6501 -5.97229 82.0032 -29.7261 22.1297 -51.0231 83.2581 24.3412 -88.7985 -24.586 4.49307 -27.4681 48.3845 29.2292 26.7037 -38.5562 12.312 -1.34375 
51.4366 87.4758 -31.213 -93.4945 -71.1036 -108.109 179.124 8.34293 89.0055 -7.37349 -32.5312 -2.32171 58.8702 -3.30087 -2.25687 28.7808 6.7949e-006 7.09447e-006 -173.679 19.6225 58.1294 -66.209 20.7792 0.520747 56.5889 5.79379 4.09862 28.7808 1.16263e-005 1.97383e-005 2.1713 7.27344 -93.0307 12.3812 2.60628 -6.91195 0.693851 2.30043 -7.01751 -21.7496 4.55916 -5.82705 -1.73696 4.55916 -5.82706 81.8603 -43.9902 -115.499 43.4023 -8.48252 -55.621 -1.61751 33.9456 -5.60502 -40.7874 12.2509 -37.7569 -82.7298 -5.98611 81.7451 -29.7481 22.0645 -52.5259 88.3659 26.0861 -90.9376 -20.7268 3.79927 -28.1457 47.016 29.3777 30.4483 -37.76 10.9961 -3.05242 
54.34 84.3263 -28.358 -96.196 -70.8654 -112.791 179.638 19.3532 84.5034 -34.6682 -29.4584 -2.16188 75.0368 -9.91373 -4.0852 28.7808 6.7949e-006 7.09447e-006 -166.492 25.6361 54.4171 -81.2484 15.5092 -0.21905 59.436 -1.93203 -1.02879 28.7808 1.16263e-005 1.97383e-005 2.50985 7.40933 -92.0781 12.2031 3.48651 -6.56832 0.519514 3.19464 -6.7147 -21.9617 5.29602 -5.22137 -1.94911 5.296 -5.22138 80.9303 -45.1277 -116.482 41.5544 -9.36064 -62.3996 -0.349979 49.3535 -6.54018 -48.9036 15.2304 -38.3755 -82.572 -5.24941 81.9469 -29.6053 21.2053 -52.3573 98.1492 25.9235 -95.4267 -19.1318 3.0666 -25.6329 47.1456 26.1998 25.7486 -35.747 8.73798 3.42462 
56.5869 81.2921 -26.4262 -97.5628 -74.6602 -117.504 -178.862 25.6297 78.6086 -46.1281 -27.072 -1.60988 81.4847 -11.9134 -4.08258 28.7808 6.7949e-006 7.09447e-006 -157.686 33.384 50.2532 -97.016 17.3727 -0.482824 59.2006 -2.66341 -1.49084 28.7808 1.16263e-005 1.97383e-005 2.57866 7.50173 -91.3891 12.0394 3.9739 -5.51677 0.362012 3.72884 -5.6848 -22.164 5.43897 -4.07408 -2.15132 5.43894 -4.07411 79.4681 -47.058 -117.912 40.4029 -9.82301 -66.3023 -0.698664 45.8663 -6.26356 -52.9871 17.1771 -39.176 -82.4365 -6.84129 83.0598 -30.331 18.5164 -51.7808 93.5678 30.2343 -93.492 -11.7565 1.66432 -25.5534 49.6544 24.6028 21.7433 -34.6177 7.35615 8.05983 
58.195 79.6761 -24.155 -112.358 -79.4105 -134.474 -177.568 26.4241 73.8731 -51.2819 -23.4983 -1.18313 85.6849 -12.0302 -3.50249 28.7808 6.7949e-006 7.09447e-006 -153.596 38.3263 49.3079 -104.838 16.1499 -0.754288 58.1558 -0.476964 -0.121815 28.7808 1.16263e-005 1.97383e-005 2.70097 7.64989 -91.3154 11.7813 4.33201 -5.61624 0.104693 4.08155 -5.80019 -22.4319 5.81134 -4.05874 -2.41922 5.81134 -4.05876 83.8658 -38.695 -114.448 40.9636 -10.509 -66.3195 -1.18135 40.1607 -5.9015 -51.2274 18.076 -42.3264 -84.7967 -18.7887 80.6145 -30.932 12.4018 -51.9917 115.448 37.0861 -107.865 4.92688 -1.52737 -26.4513 39.421 26.0605 39.0775 -27.6402 5.28595 -1.71816 
59.2439 78.8453 -21.7114 -129.842 -83.4097 -153.41 -176.833 26.5722 70.9348 -53.1213 -21.5799 -0.979966 89.613 -12.78 -3.18974 28.7808 6.7949e-006 7.09447e-006 -151.197 43.5906 48.0286 -105.948 10.2371 -1.10993 62.2037 4.67444 2.84174 28.7808 1.16263e-005 1.97383e-005 2.65909 7.57954 -91.081 11.9188 4.5326 -5.1053 0.245003 4.30387 -5.29946 -22.31 5.85561 -3.50723 -2.29736 5.85561 -3.50726 85.1424 -35.8222 -113.478 42.4467 -11.583 -64.5385 -2.00342 27.4965 -5.37391 -56.6053 14.0785 -31.3108 -84.5214 -23.3173 82.3982 -32.5133 17.914 -46.5383 78.3078 31.7504 -85.1773 -7.00571 0.412846 -16.164 37.5481 25.109 41.0259 -27.2272 3.91067 -1.84004 
59.7724 78.672 -19.4974 170.562 -86.8079 145.764 -176.343 27.3863 68.8813 -53.3118 -18.8687 -0.776373 91.2663 -13.0096 -3.0277 28.7808 6.7949e-006 7.09447e-006 -146.606 49.5556 43.0839 -102.984 8.58363 -1.13764 59.337 3.79523 2.5239 28.7808 1.16263e-005 1.97383e-005 2.50327 7.36592 -90.8885 12.3434 4.61919 -4.71827 0.671297 4.40649 -4.91652 -21.8947 5.82382 -3.11248 -1.88209 5.8238 -3.11253 86.0961 -33.4666 -112.788 44.0076 -12.5131 -62.5626 -2.55052 16.7173 -5.10869 -55.8613 12.7878 -29.2672 -84.055 -28.287 84.4557 -34.7084 20.5574 -45.1612 71.4825 32.4933 -81.0045 2.4075 -0.356011 -9.78036 36.833 25.1325 43.6312 -27.8737 3.04576 -3.0606 
59.7309 78.9171 -17.2471 115.245 -81.9111 89.9987 -176.433 26.7717 68.2778 -52.7498 -13.7158 -0.415469 91.9013 -12.2251 -2.74017 28.7808 6.7949e-006 7.09447e-006 -143.173 51.5523 37.547 -97.4564 6.1467 -1.14206 56.9222 4.63191 3.2644 28.7808 1.16263e-005 1.97383e-005 2.29986 7.24079 -90.8631 12.574 4.39331 -4.47374 0.902164 4.19264 -4.66288 -21.6616 5.53213 -2.94362 -1.64894 5.53212 -2.94363 87.4206 -29.8452 -111.905 44.0859 -12.9076 -63.0363 -2.6809 13.8792 -5.05756 -52.9947 13.3592 -31.8664 -84.1624 -32.9778 85.1059 -37.0243 18.3967 -46.3981 74.9521 43.8101 -80.6205 19.594 -1.87281 -13.8198 37.26 25.3534 46.9504 -29.1429 1.78243 -5.77089 
58.8944 79.2751 -14.9904 104.142 -75.9572 79.6038 -176.919 26.0407 69.8706 -51.6461 -8.66737 -0.0888558 92.7234 -11.4134 -2.42198 28.7808 6.7949e-006 7.09447e-006 -141.607 51.79 32.7205 -89.9694 2.5604 -1.16943 57.3193 1.84936 1.44377 28.7808 1.16263e-005 1.97383e-005 2.25818 7.10151 -91.0422 12.8345 4.30114 -4.47681 1.16232 4.10074 -4.66194 -21.3984 5.44287 -2.97399 -1.38581 5.44288 -2.97402 88.2366 -26.7086 -111.677 43.8821 -12.3369 -62.458 -3.11518 3.85274 -4.93777 -52.2201 11.7771 -29.2149 -84.6502 -38.4359 85.1355 -38.8679 19.5176 -45.2529 65.5989 44.2601 -73.4161 24.2907 -1.30589 -9.51504 35.5135 24.3468 50.375 -26.288 -0.061515 -7.07825 
57.4364 79.518 -12.6776 99.4047 -70.0614 75.5835 -177.298 25.7873 72.0779 -50.7005 -3.40165 0.233174 92.616 -11.2262 -2.39298 28.7808 6.7949e-006 7.09447e-006 -141.314 50.8237 27.9529 -81.7353 -0.740786 -1.15932 57.04 -1.36513 -0.623521 28.7808 1.16263e-005 1.97383e-005 2.08557 7.01611 -90.9854 12.9718 4.05166 -3.93893 1.30069 3.87452 -4.11329 -21.2617 5.04757 -2.53847 -1.24909 5.04759 -2.5385 87.7992 -27.2015 -112.385 43.1012 -11.0417 -61.8642 -3.7016 -10.3368 -4.89517 -53.1401 8.33009 -22.0238 -84.0944 -42.1493 86.6304 -37.5627 18.6443 -42.0778 62.0663 37.6386 -72.9891 18.1079 -0.934891 -9.02417 39.2133 24.3686 48.1371 -27.0521 -0.640903 -7.15851 
55.5139 79.6072 -10.0367 97.8171 -63.9 75.0351 -177.673 25.4333 75.2282 -50.1444 2.73663 0.595906 92.4399 -10.7364 -2.29209 28.7808 6.7949e-006 7.09447e-006 -143.756 48.8307 25.441 -73.9013 -7.77404 -1.37857 54.7186 -3.14171 -1.78758 28.7808 1.16263e-005 1.97383e-005 1.9328 6.91857 -90.8416 13.1345 3.78492 -3.27594 1.46449 3.63714 -3.43932 -21.1007 4.59409 -1.98605 -1.08803 4.59411 -1.98608 87.6074 -27.3399 -112.72 43.0263 -10.8232 -61.6104 -3.90365 -15.125 -4.91209 -49.4344 7.30401 -21.1612 -84.106 -44.278 86.8952 -38.7728 18.1846 -43.5675 59.0014 42.3282 -68.7983 24.5517 -1.17117 -8.82381 42.0499 22.3315 44.9338 -26.6998 -2.18775 -6.98035 
52.9125 79.4647 -6.70884 98.5215 -56.8464 76.4143 -178.181 24.5017 79.1303 -49.3889 9.7259 0.981383 91.9851 -10.5818 -2.30862 28.7808 6.7949e-006 7.09447e-006 -147.238 45.3802 24.193 -69.3062 -19.3594 -1.94033 46.513 1.41746 1.72483 28.7808 1.16263e-005 1.97383e-005 1.58473 6.94482 -90.4404 13.0502 3.21861 -2.21295 1.38103 3.11808 -2.35251 -21.1812 3.7347 -1.14248 -1.16858 3.73469 -1.14249 87.3444 -28.2536 -112.799 43.3278 -11.5146 -62.3113 -3.97586 -16.801 -4.92231 -47.1594 6.14318 -19.3782 -83.6563 -44.5475 87.6517 -39.0454 17.8415 -43.7106 56.5682 42.8166 -66.5988 26.8705 -1.75888 -10.7926 46.8752 19.715 39.0455 -27.7042 -3.526 -5.71079 
49.8835 79.5863 -2.66844 98.4657 -50.4198 76.9831 -178.842 23.1108 83.7259 -46.1654 16.6114 1.30859 90.5015 -11.6436 -2.81932 28.7808 6.7949e-006 7.09447e-006 -153.793 41.077 27.4921 -65.673 -30.52 -2.54549 44.8043 10.1288 8.85654 28.7808 1.16263e-005 1.97383e-005 1.29848 6.94876 -89.8756 13.0111 2.80698 -0.94027 1.34305 2.76323 -1.063 -21.2169 2.96047 -0.0522179 -1.20426 2.96047 -0.0522271 87.1204 -29.5332 -112.591 43.5834 -11.6798 -61.8921 -4.24264 -22.774 -4.98013 -45.2272 5.07955 -17.5018 -83.6809 -44.3096 87.5895 -39.6671 17.6045 -43.2501 55.1585 43.8609 -64.9731 28.9009 -1.55215 -9.5311 51.1211 15.5811 31.3862 -28.3824 -4.90732 -2.83261 
46.265 79.8745 2.22457 99.0393 -45.5698 77.7083 -179.271 19.7176 88.6271 -39.212 21.5046 1.4679 87.6356 -14.9217 -4.2842 28.7808 6.7949e-006 7.09447e-006 -160.195 36.3971 34.562 -65.0921 -34.262 -2.78319 48.9294 14.6691 11.7045 28.7808 1.16263e-005 1.97383e-005 0.780551 6.99038 -88.5278 12.8973 2.30819 1.69403 1.22744 2.37503 1.59135 -21.3095 1.68035 2.30547 -1.29685 1.68033 2.30547 83.1864 -38.1544 -115.846 43.8099 -11.551 -61.1358 -4.71534 -32.3056 -5.14727 -40.8192 4.35186 -16.9882 -80.1166 -31.9957 92.6139 -41.1365 22.7481 -41.9452 47.7331 35.8367 -62.4682 28.735 -0.21615 -4.84999 56.8401 1.24511 5.03043 -27.7051 -5.98234 15.1368 
42.0194 80.728 7.91634 98.7197 -41.9219 77.993 -178.421 13.1182 93.7378 -23.4855 24.65 1.43408 80.0552 -20.2352 -7.75854 28.7808 6.7949e-006 7.09447e-006 -163.383 33.3944 41.8372 -68.181 -25.1017 -2.2482 60.8019 11.5206 7.15482 28.7808 1.16263e-005 1.97383e-005 0.637852 7.18936 -87.5294 12.4721 2.37334 3.52704 0.798768 2.52738 3.41925 -21.7043 1.20584 4.0768 -1.69164 1.20581 4.07678 82.8283 -40.7405 -115.317 43.9759 -11.9131 -61.3764 -5.5192 -45.0683 -5.58521 -44.1395 4.50258 -16.3708 -78.9008 -29.0644 94.8256 -43.4514 25.1632 -44.8143 42.8045 38.638 -56.3435 37.9566 0.620275 -2.43389 60.1132 -7.36153 -5.51172 -28.0213 -7.90671 20.3371 
38.1124 81.3667 13.342 96.6562 -39.0708 79.7155 -174.636 6.26178 99.6398 -3.7702 24.9579 1.33948 66.836 -24.1805 -12.9595 28.7808 6.7949e-006 7.09447e-006 -167.074 34.0706 52.9206 -70.6214 -12.6999 -1.52898 67.5512 6.06164 3.1747 28.7808 1.16263e-005 1.97383e-005 0.57965 7.33375 -87.6063 12.1062 2.33594 5.84051 0.424347 2.59054 5.7326 -22.004 0.475432 6.2705 -1.99129 0.475433 6.27048 81.1016 -48.2746 -114.983 43.6865 -12.7297 -63.774 -6.24703 -53.3416 -6.09205 -39.1981 5.4047 -20.4363 -75.5289 -21.0394 102.112 -42.0803 30.4512 -46.0081 44.114 31.6868 -61.8839 34.2257 0.181366 -3.55371 61.7751 -20.9996 -24.0628 -27.8905 -9.79836 31.3206 
